<?xml version="1.0" standalone="no"?>
<!DOCTYPE svg PUBLIC "-//W3C//DTD SVG 20010904//EN"
 "http://www.w3.org/TR/2001/REC-SVG-20010904/DTD/svg10.dtd">
<svg version="1.0" xmlns="http://www.w3.org/2000/svg"
 width="4096.000000pt" height="4096.000000pt" viewBox="0 0 4096.000000 4096.000000"
 preserveAspectRatio="xMidYMid meet">

<g transform="translate(0.000000,4096.000000) scale(0.100000,-0.100000)"
fill="#000000" stroke="none">
<path d="M22510 40889 c-1066 -79 -1806 -573 -2204 -1472 -227 -513 -356
-1223 -356 -1961 0 -529 -119 -1047 -400 -1752 -301 -754 -859 -1807 -1343
-2534 -232 -348 -382 -546 -672 -885 -104 -123 -1452 -1715 -2995 -3538
l-2805 -3316 -3 445 -2 444 -5833 -2 -5832 -3 -3 -13128 -2 -13127 5835 0
5835 0 0 1296 c0 1033 3 1295 13 1291 537 -219 864 -346 1322 -517 3185 -1187
6190 -1866 8990 -2030 99 -6 270 -16 380 -22 284 -16 8753 -24 9050 -8 1527
81 2834 634 3991 1690 378 346 737 765 1010 1180 503 767 821 1673 917 2618
l14 134 184 177 c1177 1137 1802 2450 1910 4015 15 225 6 859 -15 1061 -21
194 -68 479 -105 629 l-29 118 100 117 c293 339 594 789 798 1191 410 809 615
1651 637 2605 34 1518 -441 2879 -1408 4031 l-127 151 29 119 c37 150 84 435
105 629 21 201 30 838 15 1057 -105 1497 -688 2760 -1780 3857 -1107 1111
-2402 1740 -3881 1886 -326 32 -630 35 -3747 35 l-3131 0 312 468 c569 852
1050 1605 1271 1987 411 712 862 1937 1049 2850 188 919 244 1992 150 2885
-112 1072 -440 2066 -987 2990 -419 708 -883 1235 -1422 1617 -604 428 -1315
669 -2130 722 -191 13 -2533 12 -2705 0z"/>
</g>
</svg>
